<svg width="24" height="24" viewBox="0 0 24 24" fill="none" xmlns="http://www.w3.org/2000/svg">
<path d="M8 20V14H16V20H19V4H5V20H8ZM10 20H14V16H10V20ZM21 20H23V22H1V20H3V3C3 2.73478 3.10536 2.48043 3.29289 2.29289C3.48043 2.10536 3.73478 2 4 2H20C20.2652 2 20.5196 2.10536 20.7071 2.29289C20.8946 2.48043 21 2.73478 21 3V20ZM11 8V6H13V8H15V10H13V12H11V10H9V8H11Z" fill="black"/>
<path d="M4 2.5H20C20.1326 2.5 20.2597 2.55272 20.3535 2.64648C20.4473 2.74025 20.5 2.86739 20.5 3V20.5H22.5V21.5H1.5V20.5H3.5V3C3.5 2.86739 3.55272 2.74025 3.64648 2.64648C3.74025 2.55272 3.86739 2.5 4 2.5ZM4.5 20.5H8.5V14.5H15.5V20.5H19.5V3.5H4.5V20.5ZM9.5 20.5H14.5V15.5H9.5V20.5ZM12.5 6.5V8.5H14.5V9.5H12.5V11.5H11.5V9.5H9.5V8.5H11.5V6.5H12.5Z" stroke="#EF3350" stroke-opacity="0.8"/>
</svg>
