<svg width="24" height="24" viewBox="0 0 24 24" fill="none" xmlns="http://www.w3.org/2000/svg">
<path d="M16.48 1.95198C15.8624 1.95198 15.36 1.91998 15.2 3.19998L14.56 7.23358L18.4 10.4H21.6C23.84 10.4 24 8.86558 24 8.86558L20.96 5.31518C19.84 4.19518 18.72 3.99998 17.6 3.99998V3.19998C17.6 3.19998 17.7072 1.95198 16.48 1.95198ZM7.6 2.39998C7.6 2.39998 6.08 2.43198 5.12 2.75198C4.16 3.07198 3.2 4.19518 3.2 5.79518V12.0352C3.2 14.7536 2.08 15.2 1.6 15.2C1.6 15.2 0 15.2336 0 16.8336V20.3536C0 20.3536 0 21.6336 1.28 21.6336H3.2V20.5152C3.2 19.8752 2.88 19.5552 2.4 19.3952V17.6352C4 17.6352 4.16 17.3136 4.8 17.1536L5.68 20.6688C5.84 21.1488 6 21.4688 6.48 21.6288H8.08L9.6 21.6V20.32C9.6 19.2368 8 19.2 8 19.2V15.2H13.6L14.72 19.3936C15.36 21.6336 16.8 21.6 16.8 21.6H19.2V20.32C19.2 19.1792 17.6 19.2 17.6 19.2L17.76 12.6752L12.8 8.79998H5.6V5.59998C5.6 4.95998 6.0416 4.80798 6.4 4.79998C7.1904 4.78078 7.6 4.79998 7.6 4.79998C7.91826 4.79998 8.22348 4.67355 8.44853 4.44851C8.67357 4.22346 8.8 3.91824 8.8 3.59998C8.8 3.28172 8.67357 2.97649 8.44853 2.75145C8.22348 2.52641 7.91826 2.39998 7.6 2.39998ZM18.8 6.39998C18.9061 6.39998 19.0078 6.44212 19.0828 6.51713C19.1579 6.59215 19.2 6.69389 19.2 6.79998C19.2 6.90606 19.1579 7.00781 19.0828 7.08282C19.0078 7.15783 18.9061 7.19998 18.8 7.19998C18.6939 7.19998 18.5922 7.15783 18.5172 7.08282C18.4421 7.00781 18.4 6.90606 18.4 6.79998C18.4 6.69389 18.4421 6.59215 18.5172 6.51713C18.5922 6.44212 18.6939 6.39998 18.8 6.39998Z" fill="#6155F5"/>
</svg>
